PathFileType	4	(X/Y/Z)	17_1_31_p1_0-263.trc
DataRate	CameraRate	NumFrames	NumMarkers	Units	OrigDataRate	OrigDataStartFrame	OrigNumFrames
60.0	60.0	7	27	m	60.0	66	264
Frame#	Time	RHip			RKnee			RAnkle			RBigToe			RSmallToe			RHeel			LHip			LKnee			LAnkle			LBigToe			LSmallToe			LHeel			Neck			Head			Nose			RShoulder			RElbow			RWrist			RThumb			RIndex			RPinky			LShoulder			LElbow			LWrist			LThumb			LIndex			LPinky			
		X1	Y1	Z1	X2	Y2	Z2	X3	Y3	Z3	X4	Y4	Z4	X5	Y5	Z5	X6	Y6	Z6	X7	Y7	Z7	X8	Y8	Z8	X9	Y9	Z9	X10	Y10	Z10	X11	Y11	Z11	X12	Y12	Z12	X13	Y13	Z13	X14	Y14	Z14	X15	Y15	Z15	X16	Y16	Z16	X17	Y17	Z17	X18	Y18	Z18	X19	Y19	Z19	X20	Y20	Z20	X21	Y21	Z21	X22	Y22	Z22	X23	Y23	Z23	X24	Y24	Z24	X25	Y25	Z25	X26	Y26	Z26	X27	Y27	Z27	
66	1.1	0.25701644751356667	0.5973610603761015	0.8409937234393872	0.23596125659060274	0.6125673816353813	1.2450794217487027	0.2032821087521633	0.7958806263342764	1.7025654948389533	0.24148729562669383	0.5331823013666425	1.7199315173881702	0.29174787695191323	0.594801663599845	1.7385939291804806	0.19572865463034733	0.8290005174900956	1.743370367442272	0.03245360488637737	0.5551484223191114	0.8369549200080934	0.025935423577639168	0.6237060285526039	1.262443245306492	-0.005170466731286058	0.7362463836778148	1.6767026445063693	0.08335380290760465	0.49632269430992476	1.7041000862309763	-0.0009133509999391857	0.5276620699427053	1.7016945334682987	-0.012539075880824356	0.8392923583892562	1.7756146699579833	0.14393312388811516	0.48099772408030894	0.20652380909112678	0.14342357254422902	0.32173769295093163	-0.022926087762382825	0.1440961546109306	0.30621191667744196	0.10646324030899697	0.3139233540780092	0.4935984366009911	0.30522163040544736	0.35192217551942845	0.5879336323338095	0.5552765620442661	0.3550091474800593	0.4903931222101204	0.8047296586317279	0.3003444825310649	0.3877832109204459	0.8834190321493341	0.3026000054677889	0.39006517554145365	0.902438593021735	0.32226978599871203	0.4966564128300947	0.9272416159333075	-0.004552707642242738	0.4830985227395057	0.30345996657956764	-0.06328211673279915	0.5293993764391284	0.5765812867648903	-0.031027669974395388	0.42549754174668525	0.7986699647786438	0.008937236568133755	0.32404344413708863	0.874532528254266	-0.0001353865169251733	0.29114152875530147	0.880519044023508	-0.03315739292119386	0.3544928303753027	0.9063142513651237
67	1.1166666666666667	0.25704290146550274	0.5974261993472323	0.8409374119282368	0.23606848095057364	0.6127064315761005	1.2450376046588536	0.20324573614448713	0.7957447482902263	1.7024089295032974	0.24148299122621317	0.5333732889172689	1.7199795968503697	0.2916395034726821	0.5949414246792292	1.7386931385320246	0.19563470183550216	0.8284961048490584	1.7430019837227309	0.032424902966601166	0.5551719287598043	0.8369446876889723	0.02676298258930369	0.623359695262212	1.2584864030663827	-0.004580275780357369	0.7349653715729856	1.6805980101455151	0.08434487284081742	0.49566450969585946	1.6998797131074932	-0.0008772430478175834	0.5276581178629889	1.7016672207180317	-0.01255459894888596	0.839317627776144	1.7756366780237167	0.14392386572708862	0.4810056707676028	0.2096933058555664	0.14336392283267976	0.32157610040306567	-0.02286743957376553	0.14426519233947577	0.3060099094459628	0.10967610300673228	0.31394997503110433	0.49362063368038006	0.30515737546197447	0.35196280975148764	0.5880503554175027	0.5552974115958672	0.35598592159951375	0.49167209964280156	0.8084343580360314	0.3039101408098015	0.4011996769703898	0.889362074781415	0.31453219591201165	0.3924082427248306	0.9053190143660782	0.32256035514034037	0.4967501421149853	0.9274703467323914	-0.004547627826419183	0.48306861926042544	0.3034265625222553	-0.06293685106750287	0.5292211878742377	0.572879094993287	-0.03777773264672459	0.43785074296161874	0.801562850212975	0.0034460478236327335	0.34874364841156025	0.880501336389851	-0.01232493874092039	0.3140438546112348	0.8867943799226164	-0.03332417898718969	0.3543190900756702	0.9061466469382977
68	1.1333333333333333	0.25704125591030225	0.5975157534422274	0.8411591951249445	0.23601711136680228	0.6131184809483953	1.2449197728396197	0.20324920782048542	0.7958370397516638	1.7026995178401774	0.2415029943818677	0.5331097271362951	1.7197613746109275	0.2914261246295594	0.5935930546380686	1.7381951724519231	0.1955847794935293	0.8291863412275379	1.7435848365055908	0.03618626636410115	0.5575755389581123	0.8372535843603007	0.026856021094239152	0.6231834156412833	1.2583623400547568	-0.005809001389431392	0.7357097200820216	1.6855944560464005	0.08290586120715474	0.4933884813509314	1.6982611991672032	0.005033390845515803	0.5140308961766149	1.6984381078502595	-0.02065882711632802	0.857879149819866	1.7850996111735116	0.14390341962333275	0.4811641901767102	0.20982475465214873	0.13981134818806615	0.31923403115776106	-0.02258040165017175	0.14416273641843444	0.3059124414164129	0.10992962743622002	0.3091735683894604	0.5066121060475977	0.30570335764294554	0.3516689425040163	0.5887584008542922	0.5516441126646039	0.36541279140953375	0.47892252879537134	0.8050948946854981	0.30683559960879625	0.4140994086809081	0.8948927855260772	0.31904404511208667	0.4163902742480124	0.9102814052271931	0.32876563838927325	0.5111155396734197	0.9302726032786773	-0.004509146547309065	0.4831385207581411	0.30338559584174135	-0.06298363739214032	0.5290797552353385	0.572782433500573	-0.03760367294449341	0.4374127870370269	0.8053404219828881	-0.007828139609822893	0.34622945868955846	0.8810076915335129	-0.013223198609330357	0.31497656330435775	0.8870400996611201	-0.033478742943635904	0.3542487400319029	0.9058146908563162
69	1.15	0.2569455307468425	0.5976398587094047	0.8412077037697689	0.23599685258473088	0.6131032291568715	1.2447089370527338	0.2032757584591123	0.7957312274557201	1.7027779315013436	0.23930607922953076	0.5198295475547018	1.7136600204349357	0.29116054610323383	0.5925322197246335	1.7379041372632553	0.19570077422038998	0.8289848759798092	1.7435415975514812	0.035863666673313394	0.5556659422136211	0.8324456988734161	0.02690608407621149	0.6231352469036155	1.2583239366150971	-0.004625337384626051	0.7349530664285863	1.680817004636099	0.08309103001010672	0.49271960352842425	1.6983675508338687	0.009260048591149848	0.515713836503342	1.699002175264242	-0.020676217864631398	0.8578466414847563	1.7855789353269158	0.14388909852794812	0.4811375112232918	0.2099114090852364	0.14337279773684894	0.32115741554786736	-0.022726375812308717	0.14249456135288288	0.2951230352979469	0.11362708958445053	0.3137084750851809	0.4921255041057238	0.2982329467269663	0.3519508062752407	0.5884995046531851	0.5478044410399144	0.3608072556518365	0.49307188068633717	0.808224423930658	0.3069991566134221	0.4143324210560196	0.8947700751139585	0.3192567467126492	0.41648098775657244	0.9101482907593662	0.33262695195579656	0.5123642970506532	0.9302722541074967	-0.0044440989779508805	0.48320830906290646	0.3033538320013723	-0.06322621888265548	0.5293616332074305	0.5690308739180149	-0.03768061710207543	0.43769876137321023	0.8055652555109764	-0.007481807824637477	0.3588076524538636	0.8873492186270557	-0.013151548468445943	0.3150871259462562	0.88739413253186	-0.03333237339862255	0.3544791825756954	0.9053639613637721
70	1.1666666666666667	0.2568100718254645	0.5978152190806774	0.8411452065577923	0.23675838980378386	0.6126881470198763	1.2400558580602146	0.2032116676899365	0.7957801177673738	1.70266992600859	0.24154967651131495	0.5326686272867525	1.7195829042651418	0.2914650387648678	0.593065045483092	1.7379268904771112	0.1944619867913655	0.8295294586050247	1.749208737852192	0.0358384809763424	0.555623134990732	0.8323947904969329	0.026851627514694575	0.6231942686995882	1.2582486592717637	-0.005781325591512257	0.735636765346884	1.685760255118849	0.0836950295477326	0.4951026258960416	1.703895948675864	0.009335608459194917	0.5155866447919895	1.6991602791146547	-0.01259130610448532	0.8393638864667766	1.7758974052874672	0.14395839316428474	0.48255577259230964	0.21397762796831243	0.13982301635444977	0.31875003571388655	-0.02257871936108366	0.14270497448387698	0.29506143621824343	0.11694563518063256	0.31364878675864827	0.4918389962686608	0.30178427527574864	0.351893665300825	0.5887411474863435	0.5514498523028522	0.3630791345387116	0.5057607227785302	0.8104965336748662	0.3069848856828933	0.41423139959722466	0.8944803935940414	0.319312733131238	0.4163975989062169	0.9098619135570284	0.33254126299505005	0.51267683277803	0.9303494976726925	-0.0044799829921022575	0.4833142252571833	0.3034275264948316	-0.0631989108958766	0.5292172133694487	0.5690863319506577	-0.038250667351435175	0.4379364283774567	0.8088717520879999	-0.008541606534993909	0.3462133406269553	0.8848145841049674	-0.017724019836516242	0.31531054695869865	0.8943777317801608	-0.03874943152770996	0.36450863805866024	0.9124093622974334
71	1.1833333333333333	0.25724142882303813	0.5979088221453588	0.8373004947428975	0.2390258355132766	0.6269766201074005	1.2443834062528356	0.20327826610102687	0.7957969577122023	1.7026746253415947	0.24154073148483812	0.5326428981356893	1.719633779408619	0.29153951986407806	0.5934699820624473	1.7381166587789425	0.1956856796181345	0.8289938250613217	1.7434834273621214	0.031983609293584084	0.5534269877502578	0.8322556104936916	0.02681478677024884	0.6233954630551284	1.2582520605007141	-0.00459004175937239	0.7348578525555729	1.6806644221201992	0.08472881239035993	0.509430140443357	1.7106514684959604	0.009186542769809057	0.5157258541398069	1.699140832875805	-0.012585851894398694	0.8392874867979422	1.7755302525546348	0.14401884439097676	0.4826628398975771	0.2141049786947484	0.1399581108871573	0.3184802834446879	-0.019356348064775927	0.14271884502996005	0.2949363540911614	0.11702768580516157	0.31359679714047617	0.4917858038546598	0.30169384453829423	0.3560361432709165	0.5903770911656505	0.5477726528668393	0.36308171186969557	0.5041667326224964	0.803128410822846	0.31191225473488743	0.40080708948615257	0.8907285986551947	0.3197256008737281	0.41656335818436785	0.9063761553044559	0.3325754558600032	0.5130957504730267	0.930201354074183	-0.004455448409913742	0.48343135627508776	0.30338861988857213	-0.06319256673161434	0.5291691374125187	0.5690575837078296	-0.04492221264580143	0.4501819336095702	0.8118145978820327	-0.007728392466110294	0.35877431145579114	0.887696251972692	-0.018195459149902178	0.31587280727436295	0.8971788072250281	-0.03903065017376538	0.36437140254643113	0.9121014578147456
72	1.2	0.25625752075546676	0.5966024495871293	0.8368434246347316	0.23897456098160177	0.6271550494908904	1.244605168243398	0.2031872844812862	0.7953358396634279	1.7022424649359345	0.24145663601107967	0.5342025789965251	1.720167612441734	0.2913866124934559	0.5963912799432102	1.7394177813291087	0.19291649756696316	0.8124756991525479	1.7358488491659578	0.03229560358160484	0.5530119062500437	0.8359364396076152	0.0266331866108122	0.6236838567369882	1.2582677222508711	-0.00507862729824943	0.7360888690904966	1.6764236523141118	0.08282102325464151	0.493409216790141	1.6983745701162534	-0.0008164932405475081	0.5272267268809051	1.701541331765379	-0.01250908839257253	0.8392256511960002	1.7748595481276055	0.14977768769788405	0.4704362398138201	0.2139110708020112	0.13829827394320254	0.3077932874708615	-0.018386524190317707	0.14276306995007082	0.2948471581573103	0.11713777336379294	0.3178335942968249	0.49442473720863406	0.2979548880439102	0.3565437024413506	0.5902001656960342	0.5516924259125638	0.3729136451942213	0.4774712026907475	0.7961676865257615	0.31222193202776416	0.3995613078561965	0.8898098039373841	0.3229809939531119	0.39100395400578314	0.8997130287923231	0.3371889493753666	0.5138208557273845	0.9260030092311847	-0.0044023961024374	0.4833688425035333	0.30340701112991286	-0.06335405011663689	0.528935994078605	0.5728537013565249	-0.045097857747962836	0.4502025311911166	0.811843556052966	-0.012545435268100941	0.3444526950646032	0.884915870579442	-0.023917257448394964	0.3269081923024681	0.8975605064015961	-0.038891347634457424	0.3514055627111495	0.9015824697398556
